<?xml version="1.0" ?><svg viewBox="0 0 512 512" xmlns="http://www.w3.org/2000/svg"><title/><g id="Language_translator"><path d="M170.5,409.9019H151.6113a11.53,11.53,0,0,1-11.5132-11.5132V332a17.0951,17.0951,0,0,0-29.1865-12.0884L70.583,360.24A17.0956,17.0956,0,0,0,94.76,384.417l11.1421-11.1328v25.1045a45.7583,45.7583,0,0,0,45.7094,45.7094H170.5a17.0981,17.0981,0,0,0,0-34.1962Z"/><path d="M341.5,102.0981h18.9258a11.49,11.49,0,0,1,11.4761,11.4761V180a17.0956,17.0956,0,0,0,29.1865,12.0884L441.417,151.76A17.0956,17.0956,0,0,0,417.24,127.583l-11.1421,11.1328V113.5742a45.7186,45.7186,0,0,0-45.6723-45.6723H341.5a17.0981,17.0981,0,1,0,0,34.1962Z"/><path d="M341.5568,357.965a219.3123,219.3123,0,0,0,15.8144-18.3669H325.725A223.0726,223.0726,0,0,0,341.5568,357.965Z"/><path d="M455.5,219.9019H301.5981V47A17.0965,17.0965,0,0,0,284.5,29.9019H56.5A17.0965,17.0965,0,0,0,39.4019,47V275A17.0965,17.0965,0,0,0,56.5,292.0981H210.4019V465A17.0965,17.0965,0,0,0,227.5,482.0981h228A17.0965,17.0965,0,0,0,472.5981,465V237A17.0965,17.0965,0,0,0,455.5,219.9019ZM233.2983,200.8555l-47.5-95c-5.8076-11.5967-24.789-11.5967-30.5966,0l-47.5,95a17.1019,17.1019,0,0,0,30.5966,15.289l4.7721-9.5464H197.93l4.7721,9.5464a16.9394,16.9394,0,0,0,12.4977,9.0756A16.986,16.986,0,0,0,210.4019,237v20.9019H73.5981V64.0981H267.4019V219.9019H230.6334A17.0235,17.0235,0,0,0,233.2983,200.8555Zm-52.4645-28.4536H160.1662l10.3338-20.67ZM408,339.5981h-9.0918a249.0189,249.0189,0,0,1-31.5917,40.9711,167.6724,167.6724,0,0,0,37.4828,21.0387,17.0951,17.0951,0,1,1-12.5986,31.7842A205.0476,205.0476,0,0,1,341.5,404.0479a205.0476,205.0476,0,0,1-50.7007,29.3442,16.9144,16.9144,0,0,1-6.29,1.2153,17.103,17.103,0,0,1-6.3086-33,168.5475,168.5475,0,0,0,37.5164-21.0039,249.0876,249.0876,0,0,1-31.6253-41.0059H275a17.0981,17.0981,0,0,1,0-34.1962h49.4019V284.5a17.0981,17.0981,0,0,1,34.1962,0v20.9019H408a17.0981,17.0981,0,0,1,0,34.1962Z"/></g></svg>